<svg width="72" height="24" viewBox="0 0 72 24" fill="none" xmlns="http://www.w3.org/2000/svg">
<path d="M9.11245 8.1414L5.97034 15.879H3.92035L2.37411 9.70404C2.28024 9.3237 2.19861 9.18436 1.91312 9.02413C1.44699 8.76313 0.677246 8.51826 0 8.36628L0.0459998 8.1414H3.34586C3.76648 8.1414 4.1446 8.4304 4.2401 8.93033L5.05672 13.4077L7.07496 8.14127H9.11245V8.1414ZM17.1447 13.3527C17.1529 11.3105 14.4087 11.198 14.4275 10.2858C14.4334 10.0081 14.6895 9.71294 15.2502 9.6376C15.528 9.60005 16.2937 9.57141 17.162 9.98387L17.5027 8.34305C17.036 8.16824 16.4357 8 15.6887 8C13.7718 8 12.4228 9.05174 12.4114 10.5577C12.3991 11.6717 13.3743 12.2933 14.1091 12.6634C14.8649 13.0424 15.1185 13.286 15.1157 13.6251C15.1103 14.1441 14.5128 14.3732 13.9544 14.3823C12.9797 14.3978 12.4141 14.1101 11.9632 13.8937L11.6117 15.5888C12.0648 15.8034 12.9012 15.9906 13.7683 16C15.8057 16 17.1384 14.9613 17.1447 13.3527ZM22.2064 15.879H24L22.4344 8.1414H20.7789C20.4066 8.1414 20.0926 8.36511 19.9536 8.70907L17.0435 15.879H19.0799L19.4841 14.7233H21.9723L22.2064 15.879ZM20.0425 13.1374L21.0633 10.2322L21.6508 13.1374H20.0425ZM11.8833 8.1414L10.2797 15.879H8.34046L9.9447 8.1414H11.8833Z" fill="#1434CB"/>
<g clip-path="url(#clip0_7029_11516)">
<path d="M63.2432 6.08618H56.752V17.7511H63.2432V6.08618Z" fill="#FF5F00"/>
<path d="M57.1637 11.9185C57.1627 10.7951 57.4172 9.6862 57.9081 8.67571C58.399 7.66523 59.1134 6.77968 59.9971 6.08609C58.9027 5.22587 57.5884 4.69092 56.2044 4.54237C54.8203 4.39382 53.4224 4.63766 52.1704 5.24603C50.9184 5.85441 49.8628 6.80276 49.1243 7.9827C48.3858 9.16263 47.9941 10.5265 47.9941 11.9185C47.9941 13.3105 48.3858 14.6744 49.1243 15.8544C49.8628 17.0343 50.9184 17.9827 52.1704 18.591C53.4224 19.1994 54.8203 19.4433 56.2044 19.2947C57.5884 19.1462 58.9027 18.6112 59.9971 17.751C59.1134 17.0574 58.399 16.1718 57.9081 15.1614C57.4172 14.1509 57.1627 13.0419 57.1637 11.9185Z" fill="#EB001B"/>
<path d="M71.9997 11.9185C71.9997 13.3105 71.6081 14.6744 70.8697 15.8543C70.1312 17.0343 69.0757 17.9826 67.8237 18.591C66.5717 19.1994 65.1738 19.4433 63.7898 19.2947C62.4057 19.1462 61.0914 18.6112 59.9971 17.751C60.88 17.0567 61.5938 16.171 62.0847 15.1607C62.5755 14.1503 62.8305 13.0418 62.8305 11.9185C62.8305 10.7953 62.5755 9.68672 62.0847 8.6764C61.5938 7.66607 60.88 6.78037 59.9971 6.08608C61.0914 5.22587 62.4057 4.69092 63.7898 4.54237C65.1738 4.39382 66.5717 4.63767 67.8237 5.24605C69.0757 5.85443 70.1312 6.80278 70.8697 7.98272C71.6081 9.16266 71.9997 10.5266 71.9997 11.9185Z" fill="#F79E1B"/>
<path d="M71.2915 16.5155V16.2767H71.3878V16.228H71.1426V16.2767H71.2389V16.5155H71.2915ZM71.7676 16.5155V16.2275H71.6925L71.606 16.4256L71.5195 16.2275H71.4443V16.5155H71.4974V16.2983L71.5785 16.4855H71.6335L71.7146 16.2978V16.5155H71.7676Z" fill="#F79E1B"/>
</g>
<defs>
<clipPath id="clip0_7029_11516">
<rect width="24" height="24" fill="white" transform="translate(48)"/>
</clipPath>
</defs>
</svg>
